<?xml version="1.0" encoding="utf-8"?>
<!-- Generator: Adobe Illustrator 23.0.3, SVG Export Plug-In . SVG Version: 6.00 Build 0)  -->
<svg version="1.1" id="Layer_1" xmlns="http://www.w3.org/2000/svg" xmlns:xlink="http://www.w3.org/1999/xlink" x="0px" y="0px"
	 viewBox="0 0 1311 1312" style="enable-background:new 0 0 1311 1312;" xml:space="preserve">
<style type="text/css">
	.st0{fill:#FFFFFF;}
	.st1{fill:none;stroke:#FFFFFF;stroke-width:59;stroke-miterlimit:10;}
</style>
<circle cx="655.5" cy="656" r="655.5"/>
<g>
	<path class="st0" d="M1012.27,402.28c11.8,0,22.96,4.66,31.41,13.11c8.45,8.45-16.27,19.61-16.27,31.41v418.4
		c0,11.8,24.73,22.96,16.27,31.41c-8.45,8.45-19.61,13.11-31.41,13.11H298.73c-11.8,0-22.96-4.66-31.41-13.11
		s14.55-19.61,14.55-31.41V446.8c0-11.8-23-22.96-14.55-31.41s19.61-13.11,31.41-13.11H1012.27 M1012.27,365.28H298.73
		c-44.84,0-81.52,36.68-81.52,81.52v418.4c0,44.84,36.68,81.52,81.52,81.52h713.53c44.84,0,81.52-36.68,81.52-81.52V446.8
		C1093.79,401.96,1057.1,365.28,1012.27,365.28L1012.27,365.28z"/>
	<polyline class="st1" points="267.32,415.39 655.45,711.83 1043.68,415.39 	"/>
	<line class="st1" x1="267.32" y1="896.61" x2="590.01" y2="661.85"/>
	<line class="st1" x1="1043.68" y1="896.61" x2="720.99" y2="661.85"/>
</g>
</svg>
